<mxfile host="app.diagrams.net" agent="Mozilla/5.0 (Windows NT 10.0; Win64; x64; rv:139.0) Gecko/20100101 Firefox/139.0" version="28.2.5">
  <diagram name="Seite-1" id="bVbM2CAfJ23znRaP9fJN">
    <mxGraphModel dx="703" dy="802" grid="1" gridSize="10" guides="1" tooltips="1" connect="1" arrows="1" fold="1" page="1" pageScale="1" pageWidth="827" pageHeight="1169" math="0" shadow="0">
      <root>
        <mxCell id="0" />
        <mxCell id="1" parent="0" />
        <mxCell id="g8I9z-cXFhtaP6SEINGx-1" value="Edit Mode" style="rounded=0;whiteSpace=wrap;html=1;" parent="1" vertex="1">
          <mxGeometry x="40" y="40" width="120" height="60" as="geometry" />
        </mxCell>
        <mxCell id="g8I9z-cXFhtaP6SEINGx-3" value="Return to Loop" style="rounded=0;whiteSpace=wrap;html=1;" parent="1" vertex="1">
          <mxGeometry x="40" y="750" width="120" height="60" as="geometry" />
        </mxCell>
        <mxCell id="xuox8POxKudF06jCaCQ8-1" value="&lt;div&gt;initiialize LCD&lt;/div&gt;&lt;div&gt;Set All LEDs to HIGH&lt;/div&gt;" style="rounded=0;whiteSpace=wrap;html=1;" parent="1" vertex="1">
          <mxGeometry x="40" y="160" width="120" height="60" as="geometry" />
        </mxCell>
        <mxCell id="xuox8POxKudF06jCaCQ8-2" value="" style="endArrow=classic;html=1;rounded=0;exitX=0.5;exitY=1;exitDx=0;exitDy=0;entryX=0.5;entryY=0;entryDx=0;entryDy=0;" parent="1" source="g8I9z-cXFhtaP6SEINGx-1" target="xuox8POxKudF06jCaCQ8-1" edge="1">
          <mxGeometry width="50" height="50" relative="1" as="geometry">
            <mxPoint x="210" y="220" as="sourcePoint" />
            <mxPoint x="260" y="170" as="targetPoint" />
          </mxGeometry>
        </mxCell>
        <mxCell id="xuox8POxKudF06jCaCQ8-3" value="Run Function to determine which IP to edit" style="rounded=0;whiteSpace=wrap;html=1;" parent="1" vertex="1">
          <mxGeometry x="40" y="280" width="120" height="60" as="geometry" />
        </mxCell>
        <mxCell id="xuox8POxKudF06jCaCQ8-4" value="" style="endArrow=classic;html=1;rounded=0;exitX=0.5;exitY=1;exitDx=0;exitDy=0;entryX=0.5;entryY=0;entryDx=0;entryDy=0;" parent="1" source="xuox8POxKudF06jCaCQ8-1" target="xuox8POxKudF06jCaCQ8-3" edge="1">
          <mxGeometry width="50" height="50" relative="1" as="geometry">
            <mxPoint x="210" y="250" as="sourcePoint" />
            <mxPoint x="260" y="200" as="targetPoint" />
          </mxGeometry>
        </mxCell>
        <mxCell id="xuox8POxKudF06jCaCQ8-5" value="&lt;div&gt;Edit IP Octet&lt;/div&gt;&lt;div&gt;run 4 times&lt;/div&gt;" style="rounded=0;whiteSpace=wrap;html=1;" parent="1" vertex="1">
          <mxGeometry x="40" y="400" width="120" height="60" as="geometry" />
        </mxCell>
        <mxCell id="xuox8POxKudF06jCaCQ8-6" value="" style="endArrow=classic;html=1;rounded=0;exitX=0.5;exitY=1;exitDx=0;exitDy=0;entryX=0.5;entryY=0;entryDx=0;entryDy=0;" parent="1" source="xuox8POxKudF06jCaCQ8-3" target="xuox8POxKudF06jCaCQ8-5" edge="1">
          <mxGeometry width="50" height="50" relative="1" as="geometry">
            <mxPoint x="120" y="410" as="sourcePoint" />
            <mxPoint x="170" y="360" as="targetPoint" />
          </mxGeometry>
        </mxCell>
        <mxCell id="xuox8POxKudF06jCaCQ8-7" value="Edit Subsection" style="rounded=0;whiteSpace=wrap;html=1;" parent="1" vertex="1">
          <mxGeometry x="240" y="360" width="120" height="60" as="geometry" />
        </mxCell>
        <mxCell id="xuox8POxKudF06jCaCQ8-8" value="" style="endArrow=classic;html=1;rounded=0;exitX=1;exitY=0.25;exitDx=0;exitDy=0;entryX=0;entryY=0.5;entryDx=0;entryDy=0;" parent="1" source="xuox8POxKudF06jCaCQ8-5" target="xuox8POxKudF06jCaCQ8-7" edge="1">
          <mxGeometry width="50" height="50" relative="1" as="geometry">
            <mxPoint x="120" y="490" as="sourcePoint" />
            <mxPoint x="170" y="440" as="targetPoint" />
          </mxGeometry>
        </mxCell>
        <mxCell id="xuox8POxKudF06jCaCQ8-9" value="Print Section to LCD" style="rounded=0;whiteSpace=wrap;html=1;" parent="1" vertex="1">
          <mxGeometry x="480" y="360" width="120" height="60" as="geometry" />
        </mxCell>
        <mxCell id="xuox8POxKudF06jCaCQ8-10" value="" style="endArrow=classic;html=1;rounded=0;exitX=1;exitY=0.5;exitDx=0;exitDy=0;entryX=0;entryY=0.5;entryDx=0;entryDy=0;" parent="1" source="xuox8POxKudF06jCaCQ8-7" target="xuox8POxKudF06jCaCQ8-9" edge="1">
          <mxGeometry width="50" height="50" relative="1" as="geometry">
            <mxPoint x="120" y="490" as="sourcePoint" />
            <mxPoint x="170" y="440" as="targetPoint" />
          </mxGeometry>
        </mxCell>
        <mxCell id="MAxqNxVjKIL6CvIk-ZGt-1" value="Octet Nr" style="text;html=1;align=center;verticalAlign=middle;whiteSpace=wrap;rounded=0;" vertex="1" parent="1">
          <mxGeometry x="30" y="360" width="60" height="30" as="geometry" />
        </mxCell>
        <mxCell id="MAxqNxVjKIL6CvIk-ZGt-2" value="Octet Nr" style="text;html=1;align=center;verticalAlign=middle;whiteSpace=wrap;rounded=0;" vertex="1" parent="1">
          <mxGeometry x="180" y="420" width="60" height="30" as="geometry" />
        </mxCell>
        <mxCell id="MAxqNxVjKIL6CvIk-ZGt-3" value="Octet Nr" style="text;html=1;align=center;verticalAlign=middle;whiteSpace=wrap;rounded=0;" vertex="1" parent="1">
          <mxGeometry x="390" y="400" width="60" height="30" as="geometry" />
        </mxCell>
        <mxCell id="MAxqNxVjKIL6CvIk-ZGt-4" value="IPSectionBuffer" style="text;html=1;align=center;verticalAlign=middle;whiteSpace=wrap;rounded=0;" vertex="1" parent="1">
          <mxGeometry x="160" y="360" width="60" height="30" as="geometry" />
        </mxCell>
        <mxCell id="MAxqNxVjKIL6CvIk-ZGt-5" value="IPSectionBuffer" style="text;html=1;align=center;verticalAlign=middle;whiteSpace=wrap;rounded=0;" vertex="1" parent="1">
          <mxGeometry x="390" y="350" width="60" height="30" as="geometry" />
        </mxCell>
        <mxCell id="MAxqNxVjKIL6CvIk-ZGt-7" value="" style="endArrow=classic;html=1;rounded=0;fontSize=12;startSize=8;endSize=8;curved=0;exitX=1;exitY=0.5;exitDx=0;exitDy=0;entryX=1;entryY=0.75;entryDx=0;entryDy=0;" edge="1" parent="1" source="xuox8POxKudF06jCaCQ8-9" target="xuox8POxKudF06jCaCQ8-5">
          <mxGeometry width="50" height="50" relative="1" as="geometry">
            <mxPoint x="340" y="490" as="sourcePoint" />
            <mxPoint x="360" y="550" as="targetPoint" />
            <Array as="points">
              <mxPoint x="640" y="390" />
              <mxPoint x="640" y="480" />
              <mxPoint x="240" y="480" />
            </Array>
          </mxGeometry>
        </mxCell>
        <mxCell id="MAxqNxVjKIL6CvIk-ZGt-9" value="&lt;div&gt;deactivate LCD&lt;/div&gt;&lt;div&gt;Set All LEDs to LOW&lt;/div&gt;" style="rounded=0;whiteSpace=wrap;html=1;" vertex="1" parent="1">
          <mxGeometry x="40" y="630" width="120" height="60" as="geometry" />
        </mxCell>
        <mxCell id="MAxqNxVjKIL6CvIk-ZGt-10" value="Recalculate IP and save to Variable" style="rounded=0;whiteSpace=wrap;html=1;" vertex="1" parent="1">
          <mxGeometry x="40" y="510" width="120" height="60" as="geometry" />
        </mxCell>
        <mxCell id="MAxqNxVjKIL6CvIk-ZGt-11" value="" style="endArrow=classic;html=1;rounded=0;fontSize=12;startSize=8;endSize=8;curved=1;exitX=0.5;exitY=1;exitDx=0;exitDy=0;entryX=0.5;entryY=0;entryDx=0;entryDy=0;" edge="1" parent="1" source="xuox8POxKudF06jCaCQ8-5" target="MAxqNxVjKIL6CvIk-ZGt-10">
          <mxGeometry width="50" height="50" relative="1" as="geometry">
            <mxPoint x="310" y="550" as="sourcePoint" />
            <mxPoint x="360" y="500" as="targetPoint" />
          </mxGeometry>
        </mxCell>
        <mxCell id="MAxqNxVjKIL6CvIk-ZGt-12" value="" style="endArrow=classic;html=1;rounded=0;fontSize=12;startSize=8;endSize=8;curved=1;exitX=0.5;exitY=1;exitDx=0;exitDy=0;entryX=0.5;entryY=0;entryDx=0;entryDy=0;" edge="1" parent="1" source="MAxqNxVjKIL6CvIk-ZGt-10" target="MAxqNxVjKIL6CvIk-ZGt-9">
          <mxGeometry width="50" height="50" relative="1" as="geometry">
            <mxPoint x="310" y="550" as="sourcePoint" />
            <mxPoint x="360" y="500" as="targetPoint" />
          </mxGeometry>
        </mxCell>
        <mxCell id="MAxqNxVjKIL6CvIk-ZGt-13" value="" style="endArrow=classic;html=1;rounded=0;fontSize=12;startSize=8;endSize=8;curved=1;exitX=0.5;exitY=1;exitDx=0;exitDy=0;entryX=0.5;entryY=0;entryDx=0;entryDy=0;" edge="1" parent="1" source="MAxqNxVjKIL6CvIk-ZGt-9" target="g8I9z-cXFhtaP6SEINGx-3">
          <mxGeometry width="50" height="50" relative="1" as="geometry">
            <mxPoint x="310" y="550" as="sourcePoint" />
            <mxPoint x="360" y="500" as="targetPoint" />
          </mxGeometry>
        </mxCell>
      </root>
    </mxGraphModel>
  </diagram>
</mxfile>
